<svg xmlns="http://www.w3.org/2000/svg" viewBox="0 0 336.37 72.01"><defs><style>.cls-1{fill:#e7f4f5;}.cls-2{fill:#74b959;}</style></defs><title>Ativo 1</title><g id="Camada_2" data-name="Camada 2"><g id="Camada_1-2" data-name="Camada 1"><path class="cls-1" d="M19.37,1.13Q31.77,1.13,38,5.89T44.3,20.08q0,7.07-3.49,11.62T30.4,38.22L47.18,70.84H39.87L23.66,39.17H6.46V70.84H0V1.13Zm.9,5.61H6.46v27H22.2q7.4,0,11.38-3.51t4-10q0-6.83-4.27-10.13T20.27,6.74Z"/><path class="cls-1" d="M107.73,65.23v5.61H66.31V1.13h40V6.74H72.76V31.15H97v5.61H72.76V65.23Z"/><path class="cls-1" d="M200.7,70.84V1.13h6.46V70.84Z"/><path class="cls-1" d="M227.13,54.15l5.61-2.31q2.83,7.45,7.23,11a16.66,16.66,0,0,0,10.82,3.56q6.6,0,10.63-3.72a12.72,12.72,0,0,0,4-9.8,12,12,0,0,0-2.64-8q-2.64-3.13-9-5.73-3.44-1.37-9.12-3.3A49.4,49.4,0,0,1,237.45,33a20.51,20.51,0,0,1-7.16-6.22,14.78,14.78,0,0,1-2.12-8.15q0-8.67,5.33-13.64t14.66-5q8.29,0,13.69,4.08t8.22,12.51l-5.47,1.74q-2.59-6.5-6.67-9.61a16.1,16.1,0,0,0-10.06-3.11A13.27,13.27,0,0,0,238.46,9a11.35,11.35,0,0,0-3.61,8.72,10.27,10.27,0,0,0,2.33,6.83A16.37,16.37,0,0,0,244.43,29q1.88.71,5.47,1.93,10.27,3.49,13.24,5.51a21,21,0,0,1,6.9,6.81A17.13,17.13,0,0,1,272.19,52q0,9.14-5.77,14.56T250.79,72q-8.86,0-14.59-4.34T227.13,54.15Z"/><path class="cls-1" d="M284.06,70.84,305.88,1.13h8.67l21.82,69.71h-6.65l-7-22.86H297.3l-7,22.86ZM299,42.37h22.1l-11-36.76Z"/><polygon class="cls-2" points="122.59 47.3 138.11 70.87 184.97 1.49 176.69 1.39 139.04 57.55 131.65 47.13 122.59 47.3"/></g></g></svg>