<svg height="464pt" viewBox="0 -64 464 464" width="464pt" xmlns="http://www.w3.org/2000/svg"><path d="m336 288h112c8.835938 0 16 7.164062 16 16v16c0 8.835938-7.164062 16-16 16h-201.839844c-4.070312 0-162.089844-32-166.160156-32h-32v-144h72c40 0 120 72 120 72l80 24s16 8 16 16v16c0 8.835938-7.164062 16-16 16l-80-16-56-32" fill="#f6d7c9"/><path d="m320 304-80-16-56-32-48-8v16l48 8 56 24 80 16c8.835938 0 16-7.164062 16-16v-8c0 8.835938-7.164062 16-16 16zm0 0" fill="#efbfa7"/><path d="m0 144h48v176h-48zm0 0" fill="#fc95a9"/><path d="m392 0c-30.929688 0-56 25.070312-56 56 0-30.929688-25.070312-56-56-56s-56 25.070312-56 56 81.070312 136 112 136 112-105.070312 112-136-25.070312-56-56-56zm0 0" fill="#eb3936"/></svg>