<svg viewBox="-20 0 511 511.99996" xmlns="http://www.w3.org/2000/svg"><path d="m425.730469 121.277344c-4.207031 0-7.613281 3.40625-7.613281 7.609375 0 46.167969-37.558594 83.726562-83.726563 83.726562h-45.667969v15.222657h45.667969c54.5625 0 98.949219-44.386719 98.949219-98.949219 0-4.203125-3.40625-7.609375-7.609375-7.609375zm0 0" fill="#9db55f"/><path d="m122.285156 180.140625c46.167969 0 83.726563-37.5625 83.726563-83.726563 0-4.207031 3.40625-7.613281 7.609375-7.613281s7.613281 3.40625 7.613281 7.613281c0 54.558594-44.390625 98.949219-98.949219 98.949219h-45.671875v-15.222656zm0 0" fill="#2dade3"/><path d="m38.558594 289.238281v199.511719l25.238281 8.414062c3.988281 1.332032 6.144531 5.640626 4.816406 9.628907-1.332031 3.988281-5.644531 6.144531-9.628906 4.8125l-30.445313-10.148438c-3.109374-1.035156-5.203124-3.941406-5.203124-7.21875v-205zm0 0" fill="#a45e43"/><path d="m99.449219 289.238281v199.511719l25.238281 8.414062c3.988281 1.332032 6.144531 5.640626 4.816406 9.628907s-5.640625 6.144531-9.628906 4.8125l-30.441406-10.148438c-3.109375-1.035156-5.207032-3.941406-5.207032-7.21875v-205zm0 0" fill="#85453d"/><path d="m395.28125 321.710938h-30.445312l30.445312 152.230468h30.449219v-121.78125c0-16.816406-13.632813-30.449218-30.449219-30.449218zm0 0" fill="#49c9ff"/><path d="m364.835938 321.710938h-50.742188l50.742188 76.117187v76.113281h30.445312v-121.78125c0-16.816406-13.628906-30.449218-30.445312-30.449218zm0 0" fill="#7dd9ff"/><path d="m314.09375 199.929688h-30.445312l-10.148438 121.78125h60.890625v-101.484376c0-11.210937-9.085937-20.296874-20.296875-20.296874zm0 0" fill="#9db55f"/><path d="m283.648438 199.929688h-20.296876c-11.210937 0-20.296874 9.085937-20.296874 20.296874v101.484376h60.890624v-101.484376c0-11.210937-9.085937-20.296874-20.296874-20.296874zm0 0" fill="#b9d171"/><path d="m303.945312 336.9375 30.445313 60.890625h30.445313v-30.445313zm0 0" fill="#696969"/><path d="m227.828125 367.382812v30.445313h106.5625v-60.890625zm0 0" fill="#808080"/><path d="m334.390625 306.488281-35.519531 30.449219 35.519531 30.445312h30.445313v-60.894531zm0 0" fill="#353535"/><path d="m212.605469 306.488281h121.785156v60.894531h-121.785156zm0 0" fill="#4f4f4f"/><path d="m303.023438 108.132812-14.300782 61.351563c25.222656 0 45.667969-20.449219 45.667969-45.671875zm0 0" fill="#ffb4a9"/><path d="m303.945312 123.8125c0-5.507812-.324218-10.789062-.921874-15.679688l-41.707032-20.851562c-11.089844 8.332031-18.261718 21.59375-18.261718 36.53125 0 25.222656 20.445312 45.671875 45.667968 45.671875 8.40625 0 15.222656-20.449219 15.222656-45.671875zm0 0" fill="#ffd9d0"/><path d="m288.722656 78.144531 15.121094 40.425781c9.550781 3.390626 19.832031 5.242188 30.546875 5.242188 0-25.222656-20.445313-45.667969-45.667969-45.667969zm0 0" fill="#85453d"/><path d="m288.722656 78.144531c-10.285156 0-19.769531 3.398438-27.40625 9.136719 10.691406 14.226562 25.441406 25.226562 42.523438 31.289062-.863282-22.75-7.300782-40.425781-15.117188-40.425781zm0 0" fill="#a45e43"/><path d="m182.160156 219.71875h-5.074218c-4.203126 0-7.609376 3.40625-7.609376 7.609375 0 4.207031 3.40625 7.613281 7.609376 7.613281h5.074218c12.59375 0 22.835938 10.246094 22.835938 22.835938v105.960937h15.222656v-105.960937c0-20.988282-17.074219-38.058594-38.058594-38.058594zm0 0" fill="#999"/><path d="m442.980469 466.332031h-70.53125v-175.066406c0-12.589844-10.246094-22.832031-22.835938-22.832031h-137.007812v15.222656h137.007812c4.199219 0 7.613281 3.414062 7.613281 7.609375v182.675781c0 4.207032 3.40625 7.613282 7.609376 7.613282h78.144531c4.207031 0 7.613281-3.40625 7.613281-7.613282 0-4.203125-3.40625-7.609375-7.613281-7.609375zm0 0" fill="#999"/><path d="m425.730469 7.105469v91.335937c25.222656 0 45.667969-20.445312 45.667969-45.667968 0-25.222657-20.445313-45.667969-45.667969-45.667969zm0 0" fill="#ff6337"/><path d="m440.953125 52.773438c0-25.222657-6.816406-45.667969-15.222656-45.667969-25.222657 0-45.671875 20.445312-45.671875 45.667969 0 25.222656 20.449218 45.667968 45.671875 45.667968 8.40625 0 15.222656-20.445312 15.222656-45.667968zm0 0" fill="#ff8646"/><path d="m15.722656 289.238281v70.058594h30.445313v-27c4.765625 1.683594 9.886719 2.609375 15.222656 2.609375 5.339844 0 10.460937-.925781 15.222656-2.609375h15.226563v-73.507813zm0 0" fill="#116f97"/><path d="m76.613281 258.789062v100.507813h30.449219c0-8.40625 0-70.058594 0-70.058594zm0 0" fill="#084f6d"/><path d="m101.988281 167.484375h-30.449219l-30.445312 60.890625 35.519531 60.894531h30.449219v-45.671875c8.148438-6.117187 13.8125-15.363281 15.222656-25.949218v-29.867188c0-11.214844-9.085937-20.296875-20.296875-20.296875zm0 0" fill="#2dade3"/><path d="m91.839844 187.78125v29.867188c-1.414063 10.585937-7.074219 19.832031-15.226563 25.949218v45.671875h-60.890625v-45.671875c-8.148437-6.117187-13.8125-15.363281-15.222656-25.949218v-29.867188c0-11.214844 9.082031-20.296875 20.296875-20.296875h50.742187c11.214844 0 20.300782 9.082031 20.300782 20.296875zm0 0" fill="#49c9ff"/><path d="m84.226562 22.835938c0 12.609374-10.222656 22.832031-22.835937 22.832031-12.609375 0-22.832031-10.222657-22.832031-22.832031 0-12.613282 10.222656-22.835938 22.832031-22.835938 12.613281 0 22.835937 10.222656 22.835937 22.835938zm0 0" fill="#40211d"/><path d="m61.390625 45.667969v91.339843c25.222656 0 45.671875-20.449218 45.671875-45.667968 0-25.222656-20.449219-45.671875-45.671875-45.671875zm0 0" fill="#85453d"/><path d="m76.613281 91.339844c0-25.222656-6.8125-45.671875-15.222656-45.671875-25.222656 0-45.667969 20.449219-45.667969 45.671875 0 25.21875 20.445313 45.667968 45.667969 45.667968 8.410156 0 15.222656-20.449218 15.222656-45.667968zm0 0" fill="#a45e43"/><path d="m311.554688 55.308594c0 12.613281-10.222657 22.835937-22.832032 22.835937-12.613281 0-22.835937-10.222656-22.835937-22.835937 0-12.609375 10.222656-22.832032 22.835937-22.832032 12.609375 0 22.832032 10.222657 22.832032 22.832032zm0 0" fill="#a45e43"/><path d="m227.828125 342.011719v162.375c44.839844 0 81.191406-36.347657 81.191406-81.1875 0-44.839844-36.351562-81.1875-81.191406-81.1875zm0 0" fill="#ccc"/><path d="m278.574219 423.199219c0-44.839844-22.71875-81.1875-50.746094-81.1875-44.839844 0-81.1875 36.347656-81.1875 81.1875 0 44.839843 36.347656 81.1875 81.1875 81.1875 28.027344 0 50.746094-36.347657 50.746094-81.1875zm0 0" fill="#ebebeb"/><path d="m278.574219 423.199219c0 28.023437-22.71875 50.742187-50.746094 50.742187-28.023437 0-50.742187-22.71875-50.742187-50.742187 0-28.023438 22.71875-50.742188 50.742187-50.742188 28.027344 0 50.746094 22.71875 50.746094 50.742188zm0 0" fill="#fff"/><path d="m235.441406 423.199219c0 4.203125-3.40625 7.613281-7.613281 7.613281-4.203125 0-7.609375-3.410156-7.609375-7.613281s3.40625-7.613281 7.609375-7.613281c4.207031 0 7.613281 3.410156 7.613281 7.613281zm0 0" fill="#999"/><path d="m364.835938 443.496094-15.222657 30.445312 15.222657 30.445313c16.816406 0 30.445312-13.628907 30.445312-30.445313 0-16.8125-13.628906-30.445312-30.445312-30.445312zm0 0" fill="#ccc"/><path d="m334.390625 473.941406c0 16.816406 13.632813 30.445313 30.445313 30.445313v-60.890625c-16.8125 0-30.445313 13.632812-30.445313 30.445312zm0 0" fill="#ebebeb"/><path d="m372.449219 473.941406c0 4.203125-3.410157 7.613282-7.613281 7.613282-4.203126 0-7.609376-3.410157-7.609376-7.613282s3.40625-7.609375 7.609376-7.609375c4.203124 0 7.613281 3.40625 7.613281 7.609375zm0 0" fill="#999"/></svg>